<svg version="1.1" id="Layer_1" xmlns="http://www.w3.org/2000/svg" xmlns:xlink="http://www.w3.org/1999/xlink" x="0px" y="0px"
	 width="100%" viewBox="0 0 180 180" enable-background="new 0 0 180 180" xml:space="preserve">
<path fill="#34E7E9" opacity="1.000000" stroke="none" 
	d="
M1.000001,110.000000 
	C1.000000,97.645775 1.000000,85.291542 1.307039,72.804710 
	C2.074290,71.859718 2.766185,71.098976 2.960474,70.227318 
	C6.778345,53.098824 15.254637,38.309673 27.586679,26.239056 
	C39.405113,14.671154 53.653492,6.530005 70.132927,2.931808 
	C70.861168,2.772800 71.382362,1.665555 72.000000,1.000000 
	C82.687561,1.000000 93.375122,1.000000 104.194008,1.318539 
	C106.727028,2.421216 109.079712,3.440779 111.538101,3.952623 
	C133.177979,8.458116 150.093033,20.261070 163.199036,37.693279 
	C171.344116,48.526997 177.512375,60.361141 179.144867,74.128975 
	C179.187378,74.487595 180.356354,74.712654 181.000000,75.000000 
	C181.000000,85.687561 181.000000,96.375122 180.803680,107.211411 
	C179.893021,109.217972 178.981018,111.025795 178.496338,112.941719 
	C175.279984,125.655922 169.962173,137.557861 161.673294,147.562637 
	C148.497147,163.466354 131.884277,174.544968 111.363853,179.088364 
	C110.795990,179.214081 110.449638,180.340317 110.000000,181.000000 
	C97.645775,181.000000 85.291542,181.000000 72.804710,180.692963 
	C71.859695,179.925705 71.098915,179.233795 70.227234,179.039536 
	C53.098892,175.222397 38.310356,166.745911 26.240004,154.414291 
	C14.671725,142.595612 6.530253,128.346939 2.931814,111.867111 
	C2.772795,111.138855 1.665558,110.617645 1.000001,110.000000 
M137.425842,103.377007 
	C137.617783,98.294083 137.989929,93.209328 137.937988,88.128891 
	C137.903641,84.767014 137.261002,81.411346 136.211044,77.677322 
	C135.724030,77.122742 135.302811,76.173973 134.738922,76.079842 
	C131.856171,75.598610 128.939194,75.074524 126.029518,75.046318 
	C114.434196,74.933914 102.837151,75.000000 90.999969,75.000000 
	C90.999969,67.241364 91.266083,60.081436 90.850983,52.961220 
	C90.711777,50.573486 89.383301,47.190876 87.585350,46.294071 
	C86.093475,45.549938 82.509384,47.182331 80.890137,48.800545 
	C68.436935,61.245808 56.237225,73.944717 43.957829,86.563911 
	C43.841843,86.683105 43.709896,86.786591 43.589127,86.901329 
	C40.349251,89.979179 40.448696,92.990555 43.597122,96.126503 
	C56.701859,109.179329 69.805748,122.233543 82.817719,135.378540 
	C85.760307,138.351212 88.017982,136.687149 89.688438,134.409958 
	C90.729202,132.991150 90.910057,130.721771 90.945427,128.824203 
	C91.080482,121.578773 90.999977,114.329323 90.999977,106.999947 
	C104.258667,106.999947 116.759262,107.165016 129.248581,106.863228 
	C131.802872,106.801506 134.314865,104.988899 137.425842,103.377007 
z"/>
<path fill="#000000" opacity="1.000000" stroke="none" 
	d="
M181.000000,74.531342 
	C180.356354,74.712654 179.187378,74.487595 179.144867,74.128975 
	C177.512375,60.361141 171.344116,48.526997 163.199036,37.693279 
	C150.093033,20.261070 133.177979,8.458116 111.538101,3.952623 
	C109.079712,3.440779 106.727028,2.421216 104.662666,1.318539 
	C130.259232,1.000000 155.518448,1.000000 181.000000,1.000000 
	C181.000000,25.353777 181.000000,49.708229 181.000000,74.531342 
z"/>
<path fill="#000000" opacity="1.000000" stroke="none" 
	d="
M110.468658,181.000000 
	C110.449638,180.340317 110.795990,179.214081 111.363853,179.088364 
	C131.884277,174.544968 148.497147,163.466354 161.673294,147.562637 
	C169.962173,137.557861 175.279984,125.655922 178.496338,112.941719 
	C178.981018,111.025795 179.893021,109.217972 180.803680,107.680069 
	C181.000000,132.259171 181.000000,156.518356 181.000000,181.000000 
	C157.646240,181.000000 134.291779,181.000000 110.468658,181.000000 
z"/>
<path fill="#000000" opacity="1.000000" stroke="none" 
	d="
M71.531342,1.000000 
	C71.382362,1.665555 70.861168,2.772800 70.132927,2.931808 
	C53.653492,6.530005 39.405113,14.671154 27.586679,26.239056 
	C15.254637,38.309673 6.778345,53.098824 2.960474,70.227318 
	C2.766185,71.098976 2.074290,71.859718 1.307039,72.336052 
	C1.000000,48.406475 1.000000,24.812954 1.000000,1.000000 
	C24.353769,1.000000 47.708225,1.000000 71.531342,1.000000 
z"/>
<path fill="#000000" opacity="1.000000" stroke="none" 
	d="
M1.000001,110.468658 
	C1.665558,110.617645 2.772795,111.138855 2.931814,111.867111 
	C6.530253,128.346939 14.671725,142.595612 26.240004,154.414291 
	C38.310356,166.745911 53.098892,175.222397 70.227234,179.039536 
	C71.098915,179.233795 71.859695,179.925705 72.336052,180.692963 
	C48.406475,181.000000 24.812954,181.000000 1.000000,181.000000 
	C1.000000,157.646225 1.000000,134.291779 1.000001,110.468658 
z"/>
<path fill="#000000" opacity="1.000000" stroke="none" 
	d="
M136.846375,103.983383 
	C134.314865,104.988899 131.802872,106.801506 129.248581,106.863228 
	C116.759262,107.165016 104.258667,106.999947 90.999977,106.999947 
	C90.999977,114.329323 91.080482,121.578773 90.945427,128.824203 
	C90.910057,130.721771 90.729202,132.991150 89.688438,134.409958 
	C88.017982,136.687149 85.760307,138.351212 82.817719,135.378540 
	C69.805748,122.233543 56.701859,109.179329 43.597122,96.126503 
	C40.448696,92.990555 40.349251,89.979179 43.589127,86.901329 
	C43.709896,86.786591 43.841843,86.683105 43.957829,86.563911 
	C56.237225,73.944717 68.436935,61.245808 80.890137,48.800545 
	C82.509384,47.182331 86.093475,45.549938 87.585350,46.294071 
	C89.383301,47.190876 90.711777,50.573486 90.850983,52.961220 
	C91.266083,60.081436 90.999969,67.241364 90.999969,75.000000 
	C102.837151,75.000000 114.434196,74.933914 126.029518,75.046318 
	C128.939194,75.074524 131.856171,75.598610 134.738922,76.079842 
	C135.302811,76.173973 135.724030,77.122742 136.599152,78.327560 
	C136.940308,87.312996 136.893341,95.648193 136.846375,103.983383 
z"/>
<path fill="#78DADC" opacity="1.000000" stroke="none" 
	d="
M137.136108,103.680199 
	C136.893341,95.648193 136.940308,87.312996 136.938965,78.515350 
	C137.261002,81.411346 137.903641,84.767014 137.937988,88.128891 
	C137.989929,93.209328 137.617783,98.294083 137.136108,103.680199 
z"/>
</svg>