<svg version="1.1" id="Layer_1" xmlns="http://www.w3.org/2000/svg" xmlns:xlink="http://www.w3.org/1999/xlink" x="0px" y="0px"
	 width="100%" viewBox="0 0 180 180" enable-background="new 0 0 180 180" xml:space="preserve">
<path fill="#BFBFBF" opacity="1.000000" stroke="none" 
	d="
M181.000000,72.000000 
	C181.000000,84.354225 181.000000,96.708458 180.693787,109.194138 
	C179.925842,110.136803 179.231583,110.895988 179.036728,111.766907 
	C175.206039,128.888916 166.749115,143.689026 154.412064,155.758850 
	C142.589920,167.324905 128.342911,175.468933 111.861626,179.065735 
	C111.134979,179.224319 110.615814,180.333572 110.000000,181.000000 
	C97.645775,181.000000 85.291542,181.000000 72.805763,180.693756 
	C71.862953,179.925751 71.103722,179.231430 70.232750,179.036606 
	C53.110535,175.206299 38.310566,166.748672 26.240698,154.412079 
	C14.674401,142.590179 6.531210,128.342331 2.934139,111.861176 
	C2.775578,111.134682 1.666383,110.615662 0.999999,110.000000 
	C1.000000,97.645775 1.000000,85.291542 1.306166,72.805923 
	C2.074224,71.863396 2.768709,71.104340 2.963636,70.233459 
	C6.795862,53.112225 15.249892,38.310658 27.587736,26.240679 
	C39.410362,14.674730 53.657318,6.531326 70.138367,2.934267 
	C70.865021,2.775673 71.384186,1.666427 72.000000,0.999999 
	C84.354225,1.000000 96.708458,1.000000 109.194244,1.306255 
	C110.137054,2.074269 110.896278,2.768575 111.767250,2.963419 
	C128.889374,6.793813 143.689270,15.251359 155.759186,27.587927 
	C167.325546,39.409813 175.468506,53.657673 179.066025,70.138603 
	C179.224625,70.865173 180.333679,71.384262 181.000000,72.000000 
M48.654041,166.880600 
	C60.549286,173.796310 73.488327,177.362167 87.125938,177.918945 
	C108.932602,178.809204 128.661606,172.495972 145.505356,158.594711 
	C165.955490,141.717056 177.193100,119.885994 177.937653,93.184074 
	C178.525772,72.092072 172.146561,53.060085 158.779114,36.740715 
	C141.964340,16.212765 120.172859,4.924762 93.492188,4.068995 
	C72.218857,3.386664 53.037472,9.841203 36.582748,23.329046 
	C16.653984,39.664543 5.062384,60.860329 4.179364,86.703262 
	C2.984824,121.663284 18.343224,148.188339 48.654041,166.880600 
z"/>
<path fill="#000000" opacity="1.000000" stroke="none" 
	d="
M71.531342,0.999999 
	C71.384186,1.666427 70.865021,2.775673 70.138367,2.934267 
	C53.657318,6.531326 39.410362,14.674730 27.587736,26.240679 
	C15.249892,38.310658 6.795862,53.112225 2.963636,70.233459 
	C2.768709,71.104340 2.074224,71.863396 1.306166,72.337265 
	C1.000000,48.406475 1.000000,24.812954 1.000000,1.000000 
	C24.353769,1.000000 47.708225,1.000000 71.531342,0.999999 
z"/>
<path fill="#000000" opacity="1.000000" stroke="none" 
	d="
M181.000000,71.531342 
	C180.333679,71.384262 179.224625,70.865173 179.066025,70.138603 
	C175.468506,53.657673 167.325546,39.409813 155.759186,27.587927 
	C143.689270,15.251359 128.889374,6.793813 111.767250,2.963419 
	C110.896278,2.768575 110.137054,2.074269 109.662903,1.306255 
	C133.593521,1.000000 157.187027,1.000000 181.000000,1.000000 
	C181.000000,24.353769 181.000000,47.708225 181.000000,71.531342 
z"/>
<path fill="#000000" opacity="1.000000" stroke="none" 
	d="
M0.999999,110.468658 
	C1.666383,110.615662 2.775578,111.134682 2.934139,111.861176 
	C6.531210,128.342331 14.674401,142.590179 26.240698,154.412079 
	C38.310566,166.748672 53.110535,175.206299 70.232750,179.036606 
	C71.103722,179.231430 71.862953,179.925751 72.337105,180.693756 
	C48.406475,181.000000 24.812954,181.000000 1.000000,181.000000 
	C1.000000,157.646225 1.000000,134.291779 0.999999,110.468658 
z"/>
<path fill="#000000" opacity="1.000000" stroke="none" 
	d="
M110.468658,181.000000 
	C110.615814,180.333572 111.134979,179.224319 111.861626,179.065735 
	C128.342911,175.468933 142.589920,167.324905 154.412064,155.758850 
	C166.749115,143.689026 175.206039,128.888916 179.036728,111.766907 
	C179.231583,110.895988 179.925842,110.136803 180.693787,109.662796 
	C181.000000,133.593521 181.000000,157.187042 181.000000,181.000000 
	C157.646225,181.000000 134.291779,181.000000 110.468658,181.000000 
z"/>
<path fill="#DEDEDE" opacity="1.000000" stroke="none" 
	d="
M48.329620,166.709244 
	C18.343224,148.188339 2.984824,121.663284 4.179364,86.703262 
	C5.062384,60.860329 16.653984,39.664543 36.582748,23.329046 
	C53.037472,9.841203 72.218857,3.386664 93.492188,4.068995 
	C120.172859,4.924762 141.964340,16.212765 158.779114,36.740715 
	C172.146561,53.060085 178.525772,72.092072 177.937653,93.184074 
	C177.193100,119.885994 165.955490,141.717056 145.505356,158.594711 
	C128.661606,172.495972 108.932602,178.809204 87.125938,177.918945 
	C73.488327,177.362167 60.549286,173.796310 48.329620,166.709244 
M78.521469,46.975197 
	C66.156807,59.350269 53.758472,71.691971 41.444569,84.117340 
	C36.721832,88.882835 36.625011,92.967545 41.184834,97.575821 
	C54.192093,110.721275 67.167458,123.904907 80.500465,136.714325 
	C82.510674,138.645584 86.953491,140.081024 89.206047,139.155045 
	C91.490005,138.216141 93.405121,134.192596 93.790489,131.295105 
	C94.509048,125.892296 94.173073,120.319359 93.945229,114.830956 
	C93.790634,111.107040 95.191238,109.882225 98.866959,109.941734 
	C109.693474,110.117012 120.524818,110.032784 131.354004,109.988037 
	C136.694199,109.965981 140.187515,107.506950 140.528580,102.197388 
	C141.006485,94.758102 141.007645,87.207443 140.280807,79.795822 
	C139.642654,73.288658 137.529587,72.030640 130.974503,72.007446 
	C120.811668,71.971474 110.648613,72.004555 100.485664,71.994507 
	C94.017876,71.988113 94.014397,71.976898 94.003975,65.292519 
	C93.995918,60.127754 94.480186,54.897446 93.790955,49.826015 
	C93.449379,47.312626 91.448372,44.102032 89.292343,43.032040 
	C87.353806,42.069984 84.129623,43.427982 81.570610,44.123482 
	C80.584663,44.391441 79.869331,45.655148 78.521469,46.975197 
z"/>
<path fill="#BFBFBF" opacity="1.000000" stroke="none" 
	d="
M78.776085,46.720184 
	C79.869331,45.655148 80.584663,44.391441 81.570610,44.123482 
	C84.129623,43.427982 87.353806,42.069984 89.292343,43.032040 
	C91.448372,44.102032 93.449379,47.312626 93.790955,49.826015 
	C94.480186,54.897446 93.995918,60.127754 94.003975,65.292519 
	C94.014397,71.976898 94.017876,71.988113 100.485664,71.994507 
	C110.648613,72.004555 120.811668,71.971474 130.974503,72.007446 
	C137.529587,72.030640 139.642654,73.288658 140.280807,79.795822 
	C141.007645,87.207443 141.006485,94.758102 140.528580,102.197388 
	C140.187515,107.506950 136.694199,109.965981 131.354004,109.988037 
	C120.524818,110.032784 109.693474,110.117012 98.866959,109.941734 
	C95.191238,109.882225 93.790634,111.107040 93.945229,114.830956 
	C94.173073,120.319359 94.509048,125.892296 93.790489,131.295105 
	C93.405121,134.192596 91.490005,138.216141 89.206047,139.155045 
	C86.953491,140.081024 82.510674,138.645584 80.500465,136.714325 
	C67.167458,123.904907 54.192093,110.721275 41.184834,97.575821 
	C36.625011,92.967545 36.721832,88.882835 41.444569,84.117340 
	C53.758472,71.691971 66.156807,59.350269 78.776085,46.720184 
M136.970001,79.079826 
	C135.716599,75.115570 132.446899,75.002769 129.138550,75.000816 
	C116.544113,74.993393 103.949684,74.997818 91.002136,74.997818 
	C91.002136,67.204536 91.282555,59.898903 90.840004,52.637333 
	C90.697769,50.303391 88.950417,47.798645 87.257820,46.018024 
	C86.838333,45.576717 83.382912,47.261436 81.977837,48.637512 
	C71.157028,59.234989 60.476841,69.976601 49.793617,80.713882 
	C38.345848,92.219559 38.371647,89.800995 49.771122,101.260201 
	C60.688122,112.234390 71.618523,123.196220 82.665482,134.038727 
	C83.836121,135.187714 86.463844,136.510971 87.306038,135.983109 
	C88.951912,134.951523 90.098755,132.787308 90.899277,130.862076 
	C91.430473,129.584579 91.002060,127.907829 91.002121,126.409798 
	C91.002373,119.993202 91.002228,113.576599 91.002228,107.142998 
	C92.342400,107.072693 92.997139,107.008751 93.651909,107.008385 
	C105.636131,107.001701 117.620667,107.053322 129.604462,106.980667 
	C135.629807,106.944145 136.973389,105.588402 136.996368,99.958847 
	C137.023544,93.301064 137.000381,86.643074 136.970001,79.079826 
z"/>
<path fill="#000000" opacity="1.000000" stroke="none" 
	d="
M136.984528,79.532501 
	C137.000381,86.643074 137.023544,93.301064 136.996368,99.958847 
	C136.973389,105.588402 135.629807,106.944145 129.604462,106.980667 
	C117.620667,107.053322 105.636131,107.001701 93.651909,107.008385 
	C92.997139,107.008751 92.342400,107.072693 91.002228,107.142998 
	C91.002228,113.576599 91.002373,119.993202 91.002121,126.409798 
	C91.002060,127.907829 91.430473,129.584579 90.899277,130.862076 
	C90.098755,132.787308 88.951912,134.951523 87.306038,135.983109 
	C86.463844,136.510971 83.836121,135.187714 82.665482,134.038727 
	C71.618523,123.196220 60.688122,112.234390 49.771122,101.260201 
	C38.371647,89.800995 38.345848,92.219559 49.793617,80.713882 
	C60.476841,69.976601 71.157028,59.234989 81.977837,48.637512 
	C83.382912,47.261436 86.838333,45.576717 87.257820,46.018024 
	C88.950417,47.798645 90.697769,50.303391 90.840004,52.637333 
	C91.282555,59.898903 91.002136,67.204536 91.002136,74.997818 
	C103.949684,74.997818 116.544113,74.993393 129.138550,75.000816 
	C132.446899,75.002769 135.716599,75.115570 136.984528,79.532501 
z"/>
</svg>